# Blender 4.5.3 LTS
# www.blender.org
mtllib body2.mtl
o BODY
v -2.312148 2.973590 0.113480
v 0.360009 3.886124 0.528483
v 0.318686 4.476138 0.363506
v 0.347693 3.757769 -0.183263
v 0.304977 4.406913 -0.210187
v 0.000000 3.646868 -0.226997
v 0.000000 4.471233 -0.264603
v 0.394124 4.042982 -0.263263
v 0.439573 3.855509 0.153099
v 0.370887 4.509448 0.068295
v 0.416337 4.182188 0.521241
v 0.000000 3.803246 0.617513
v 0.000000 4.540177 0.402647
v 0.000000 3.975974 -0.372718
v 0.557094 4.144041 0.114701
v 0.000000 4.145142 0.654298
v 0.000000 3.830314 0.156383
v 0.000000 4.652117 0.059437
v 0.518147 4.086618 0.263373
v 0.692983 4.206597 0.186087
v 0.464705 4.046661 0.048363
v 0.629834 4.162153 -0.025601
v 1.353449 2.750283 0.304229
v 1.563965 2.921667 0.206005
v 1.267140 2.700967 0.033201
v 1.477656 2.872351 -0.065023
v 0.370703 4.232400 0.156880
v 0.505315 4.326133 0.234917
v 0.563277 4.397690 0.087256
v 0.436238 4.276804 -0.009368
v 1.469149 2.617692 -0.057729
v 1.390180 2.540082 0.177037
v 1.657867 2.758011 0.052138
v 1.578898 2.680401 0.286904
v 0.134692 4.564948 0.113220
v 1.751660 2.308508 0.104061
v 0.994515 3.170226 0.054869
v 1.110012 3.436147 -0.026103
v 1.267779 3.191215 -0.041978
v 1.188378 3.313582 -0.033742
v 1.064683 3.219782 0.296985
v 1.346442 3.239291 0.209388
v 1.179303 3.482485 0.201594
v 1.262954 3.361398 0.207412
v 1.078990 3.231865 -0.031773
v 1.179611 3.296478 0.293998
v 1.000174 3.164378 0.190625
v 1.181359 3.478713 0.072652
v 1.345605 3.238315 0.067048
v 1.264448 3.358837 0.070629
v 0.231343 0.994573 0.159178
v 0.275392 1.834417 0.881667
v 0.210054 1.315996 -0.391674
v 0.258927 2.378486 0.581178
v 0.784354 0.975129 0.162051
v 0.771487 1.820658 0.841869
v 0.771435 1.308184 -0.396729
v 0.767350 2.363461 0.518111
v 0.528075 -0.032775 0.030667
v 0.107722 1.175415 -0.127849
v 0.208435 1.548649 0.503785
v 0.213846 2.171820 0.847144
v 0.182397 2.014279 -0.006022
v 0.486495 1.393396 -0.519985
v 0.515442 2.524421 0.640954
v 0.812776 1.998526 -0.060901
v 0.889367 1.156132 -0.128725
v 0.828614 2.153638 0.776696
v 0.819506 1.532827 0.484555
v 0.510594 0.938151 0.263411
v 0.527018 1.801036 0.982886
v 0.342594 0.432888 -0.043314
v 0.686194 0.413522 -0.038260
v 0.846777 0.726717 -0.457039
v 0.156604 0.760503 -0.468395
v 0.077644 1.792456 0.264951
v 0.494756 2.108425 -0.121563
v 0.934280 1.770560 0.212374
v 0.517168 1.454591 0.598889
v 0.514769 0.445891 0.073658
v 0.527402 2.295934 1.034820
v 0.488103 1.167250 -0.731946
v 0.219060 0.694594 -0.249477
v 0.792338 0.667642 -0.237621
v -0.360009 3.886124 0.528483
v -0.318686 4.476138 0.363506
v -0.347693 3.757769 -0.183263
v -0.304977 4.406913 -0.210187
v -0.394124 4.042982 -0.263263
v -0.439573 3.855509 0.153099
v -0.370887 4.509448 0.068295
v -0.416337 4.182188 0.521241
v -0.557094 4.144041 0.114700
v -0.518888 4.085564 0.261301
v -0.693391 4.205357 0.183000
v -0.463543 4.046679 0.046788
v -0.628266 4.161979 -0.028311
v -1.352709 2.753309 0.304425
v -1.562705 2.924347 0.204500
v -1.267543 2.699788 0.033834
v -1.477539 2.870827 -0.066091
v -0.370953 4.232226 0.156714
v -0.506377 4.325336 0.234051
v -0.563203 4.397462 0.086478
v -0.435190 4.277124 -0.009893
v -1.470259 2.616255 -0.055268
v -1.390894 2.541538 0.180302
v -1.657920 2.759027 0.053240
v -1.578555 2.684311 0.288810
v -0.134711 4.564955 0.113267
v -1.753746 2.310762 0.111743
v -0.991557 3.168313 0.046349
v -1.106427 3.434217 -0.036157
v -1.265121 3.188982 -0.050177
v -1.185005 3.311404 -0.043587
v -1.062797 3.217974 0.287321
v -1.343800 3.239348 0.200795
v -1.176919 3.480808 0.191130
v -1.260302 3.360377 0.197220
v -1.075617 3.229685 -0.040976
v -1.177358 3.295624 0.284302
v -0.997662 3.162975 0.182027
v -1.178318 3.476837 0.062155
v -1.342919 3.237232 0.058582
v -1.261385 3.357183 0.060414
v -0.223955 0.341942 0.115403
v -0.253576 1.366133 0.538987
v -0.208254 0.474536 -0.508597
v -0.238084 1.788596 0.083072
v -0.776979 0.329657 0.130295
v -0.750230 1.345345 0.510952
v -0.769688 0.470895 -0.504784
v -0.747385 1.759437 0.033472
v -0.528162 -0.671110 0.318344
v -0.103182 0.422647 -0.215159
v -0.193306 0.975804 0.268890
v -0.190602 1.675162 0.399867
v -0.171493 1.258152 -0.361342
v -0.485953 0.510512 -0.651647
v -0.492949 1.948351 0.096956
v -0.802631 1.232031 -0.401599
v -0.884866 0.411523 -0.201365
v -0.806352 1.641712 0.345415
v -0.804660 0.960593 0.262297
v -0.502095 0.323658 0.235123
v -0.504004 1.368523 0.648326
v -0.341074 -0.253810 0.100226
v -0.684678 -0.267339 0.114865
v -0.849103 -0.099474 -0.379138
v -0.158965 -0.077533 -0.408085
v -0.064363 1.131323 -0.035701
v -0.484841 1.314372 -0.497115
v -0.921737 1.102249 -0.069363
v -0.501260 0.919200 0.392051
v -0.511587 -0.203197 0.209127
v -0.500907 1.854780 0.542669
v -0.491678 0.229403 -0.782096
v -0.218847 -0.070994 -0.178866
v -0.792057 -0.087405 -0.152869
vn -0.0000 -0.1055 -0.9944
vn -0.0000 0.6189 -0.7855
vn 0.5254 0.5132 -0.6787
vn 0.6778 -0.0485 -0.7337
vn -0.0000 -0.9163 -0.4005
vn 0.5502 -0.7535 -0.3598
vn 0.9967 0.0729 -0.0353
vn 0.7078 -0.6990 0.1020
vn 0.6663 0.7380 -0.1069
vn 0.5250 0.6986 0.4861
vn 0.6974 0.1883 0.6915
vn 0.5542 -0.6046 0.5721
vn -0.0000 0.2145 0.9767
vn -0.0000 -0.7235 0.6903
vn -0.0000 0.8106 0.5856
vn -0.0000 -0.9826 0.1855
vn -0.0000 0.9942 -0.1076
vn -0.4041 -0.1830 0.8962
vn 0.0753 0.4251 0.9020
vn -0.7263 0.6873 -0.0135
vn -0.8530 -0.3888 0.3482
vn 0.7015 0.5484 0.4552
vn 0.5078 0.8312 -0.2265
vn 0.3209 0.2816 -0.9043
vn -0.3475 0.0530 -0.9362
vn -0.7790 -0.4608 -0.4253
vn -0.7434 -0.5240 -0.4158
vn -0.0974 -0.4152 -0.9045
vn 0.5647 -0.8248 -0.0297
vn -0.5574 -0.7679 0.3158
vn 0.3573 0.2019 -0.9119
vn 0.9100 0.2447 -0.3347
vn 0.7882 0.4412 0.4290
vn 0.4712 -0.0929 0.8771
vn -0.3226 -0.2908 0.9008
vn 0.3161 0.2567 -0.9133
vn -0.2983 -0.1463 -0.9432
vn 0.3206 0.2648 -0.9094
vn 0.3405 0.2501 -0.9064
vn 0.7341 0.5164 0.4408
vn 0.2891 0.2164 0.9325
vn 0.7383 0.5206 0.4287
vn 0.7477 0.4987 0.4384
vn 0.7775 0.5335 -0.3330
vn 0.7713 0.5363 -0.3427
vn 0.7746 0.5313 -0.3430
vn -0.7842 -0.4623 -0.4139
vn -0.8080 -0.4873 0.3312
vn -0.3768 -0.2117 0.9018
vn -0.7544 -0.3615 0.5480
vn -0.7543 -0.4046 0.5170
vn -0.9979 0.0439 0.0467
vn -0.9960 -0.0885 0.0125
vn -0.6646 -0.3363 0.6672
vn -0.8059 0.2663 0.5288
vn -0.7064 0.7072 -0.0307
vn -0.7436 0.4884 -0.4566
vn -0.8103 0.2407 -0.5343
vn -0.0317 0.7043 -0.7092
vn -0.0254 0.4341 -0.9005
vn 0.0290 0.9958 0.0870
vn 0.7083 0.6981 -0.1051
vn 0.7091 0.4798 -0.5167
vn 0.7851 0.2420 -0.5702
vn 0.9986 0.0518 -0.0125
vn 0.9972 -0.0708 -0.0247
vn 0.8650 0.2600 0.4292
vn 0.7229 -0.3199 0.6125
vn 0.7800 -0.3878 0.4912
vn 0.7634 -0.3468 0.5450
vn 0.0081 -0.6500 0.7599
vn -0.0115 -0.4662 0.8846
vn 0.0535 -0.4174 0.9071
vn -0.0104 -0.2827 0.9591
vn 0.7520 -0.3109 0.5812
vn -0.7533 -0.3340 0.5665
vn -0.0009 -0.9569 0.2903
vn 0.0671 0.4764 0.8767
vn -0.0044 0.1160 -0.9932
vn -0.7282 -0.3034 -0.6146
vn 0.7162 -0.2948 -0.6325
vn -0.9616 -0.2472 0.1194
vn 0.9727 -0.2109 0.0974
vn -0.6778 -0.0485 -0.7337
vn -0.5254 0.5132 -0.6787
vn -0.5502 -0.7535 -0.3598
vn -0.7078 -0.6990 0.1020
vn -0.9967 0.0729 -0.0353
vn -0.6663 0.7380 -0.1069
vn -0.6974 0.1883 0.6915
vn -0.5250 0.6986 0.4861
vn -0.5542 -0.6046 0.5721
vn 0.3985 -0.1853 0.8982
vn 0.8507 -0.3873 0.3554
vn 0.7257 0.6879 -0.0103
vn -0.0810 0.4230 0.9025
vn -0.5081 0.8312 -0.2255
vn -0.7079 0.5456 0.4486
vn 0.3528 0.0553 -0.9341
vn -0.3124 0.2829 -0.9068
vn 0.7833 -0.4579 -0.4204
vn 0.7388 -0.5349 -0.4099
vn 0.5546 -0.7661 0.3249
vn -0.5688 -0.8223 -0.0164
vn 0.0921 -0.4290 -0.8986
vn -0.9099 0.2446 -0.3349
vn -0.3608 0.1893 -0.9132
vn -0.4684 -0.0776 0.8801
vn -0.7835 0.4528 0.4256
vn 0.3250 -0.2780 0.9039
vn -0.3181 0.2440 -0.9161
vn -0.3190 0.2580 -0.9120
vn 0.3001 -0.1540 -0.9414
vn -0.3321 0.2492 -0.9097
vn -0.7395 0.5155 0.4330
vn -0.7375 0.5261 0.4235
vn -0.2894 0.2234 0.9308
vn -0.7434 0.5098 0.4330
vn -0.7695 0.5352 -0.3485
vn -0.7758 0.5325 -0.3386
vn -0.7730 0.5302 -0.3484
vn 0.7832 -0.4660 -0.4117
vn 0.8073 -0.4866 0.3339
vn 0.3780 -0.2081 0.9021
vn 0.7596 -0.1789 0.6253
vn 0.9956 -0.0896 0.0286
vn 0.9987 0.0467 0.0196
vn 0.7589 -0.2296 0.6094
vn 0.8144 0.4107 0.4099
vn 0.6716 -0.1169 0.7316
vn 0.7402 0.3138 -0.5947
vn 0.7099 0.6552 -0.2583
vn 0.8044 0.0536 -0.5917
vn 0.0158 0.1301 -0.9914
vn 0.0261 0.4465 -0.8944
vn -0.0222 0.9732 -0.2289
vn -0.7133 0.3006 -0.6331
vn -0.7057 0.6368 -0.3107
vn -0.7913 0.0588 -0.6086
vn -0.9978 -0.0655 0.0097
vn -0.9984 0.0548 -0.0172
vn -0.8577 0.3896 0.3356
vn -0.7755 -0.2071 0.5965
vn -0.7164 -0.1051 0.6898
vn -0.7579 -0.1515 0.6345
vn 0.0207 -0.1659 0.9859
vn -0.0016 -0.3793 0.9253
vn -0.0436 -0.1119 0.9928
vn -0.7459 -0.1062 0.6575
vn 0.0217 0.0317 0.9993
vn 0.7590 -0.1470 0.6343
vn -0.0006 -0.8179 0.5753
vn -0.0526 0.7275 0.6841
vn 0.7181 -0.4875 -0.4966
vn -0.0083 -0.2008 -0.9796
vn -0.7263 -0.4711 -0.5005
vn 0.9617 -0.2066 0.1803
vn -0.9724 -0.1605 0.1692
vt 0.871108 0.383473
vt 0.912927 0.362120
vt 0.923837 0.394761
vt 0.889715 0.415940
vt 0.845298 0.396618
vt 0.861645 0.421206
vt 0.922639 0.467936
vt 0.862294 0.476590
vt 0.966678 0.407541
vt 0.927882 0.695648
vt 0.852724 0.695648
vt 0.869155 0.653972
vt 0.902986 0.639729
vt 0.971846 0.653678
vt 0.923209 0.620576
vt 0.887768 0.604435
vt 0.912409 0.592264
vt 0.848733 0.623766
vt 0.788145 0.425533
vt 0.975333 0.561376
vt 0.962953 0.336601
vt 0.798628 0.648515
vt 0.452133 0.915297
vt 0.427489 0.929721
vt 0.369675 0.931645
vt 0.424778 0.906243
vt 0.450796 0.942573
vt 0.423763 0.953076
vt 0.731736 0.984778
vt 0.752769 0.930534
vt 0.778845 0.917839
vt 0.772436 0.943671
vt 0.787817 0.961614
vt 0.799765 0.935394
vt 0.933059 0.815078
vt 0.936643 0.783394
vt 0.986903 0.735641
vt 0.970050 0.806838
vt 0.902658 0.788151
vt 0.911988 0.752259
vt 0.725847 0.913750
vt 0.662748 0.957417
vt 0.630076 0.939871
vt 0.656661 0.918171
vt 0.662163 0.877732
vt 0.630981 0.899270
vt 0.862466 0.824866
vt 0.862222 0.853449
vt 0.846537 0.840578
vt 0.831264 0.856997
vt 0.531052 0.945463
vt 0.554693 0.925162
vt 0.553477 0.945416
vt 0.575828 0.944407
vt 0.816206 0.843758
vt 0.831257 0.826059
vt 0.847191 0.809314
vt 0.576858 0.966182
vt 0.553745 0.966492
vt 0.530532 0.965507
vt 0.877712 0.867304
vt 0.892702 0.882130
vt 0.554364 0.883311
vt 0.555055 0.904383
vt 0.397844 0.198608
vt 0.351142 0.145922
vt 0.385371 0.115468
vt 0.442202 0.181628
vt 0.308772 0.104791
vt 0.318616 0.065381
vt 0.350932 0.042063
vt 0.421108 0.086098
vt 0.484589 0.176737
vt 0.457043 0.047555
vt 0.535946 0.171302
vt 0.338590 0.000275
vt 0.465817 0.485238
vt 0.346291 0.539778
vt 0.362045 0.494159
vt 0.431055 0.444748
vt 0.540678 0.355901
vt 0.487183 0.351783
vt 0.392230 0.415349
vt 0.441964 0.347310
vt 0.326858 0.470944
vt 0.312245 0.430074
vt 0.352752 0.386105
vt 0.396447 0.330902
vt 0.311093 0.358478
vt 0.360387 0.306466
vt 0.270752 0.428941
vt 0.313014 0.176624
vt 0.270752 0.110321
vt 0.363169 0.225003
vt 0.391254 0.265678
vt 0.415096 0.282994
vt 0.415091 0.248123
vt 0.421508 0.266572
vt 0.280244 0.507016
vt 0.277242 0.035476
vt 0.538418 0.263039
vt 0.455174 0.228267
vt 0.452217 0.300990
vt 0.438205 0.228811
vt 0.436142 0.301009
s 1
usemtl b
f 14/1/1 7/2/2 5/3/3 8/4/4
f 6/5/5 14/1/1 8/4/4 4/6/6
f 4/6/6 8/4/4 15/7/7 9/8/8
f 8/4/4 5/3/3 10/9/9 15/7/7
f 15/10/7 10/11/9 3/12/10 11/13/11
f 9/14/8 15/10/7 11/13/11 2/15/12
f 2/15/12 11/13/11 16/16/13 12/17/14
f 11/13/11 3/12/10 13/18/15 16/16/13
f 6/5/5 4/6/6 9/8/8 17/19/16
f 17/20/16 9/14/8 2/15/12 12/17/14
f 5/3/3 7/2/2 18/21/17 10/9/9
f 10/11/9 18/22/17 13/18/15 3/12/10
f 19/23/18 28/24/19 35/25/20 27/26/21
f 28/24/19 20/27/22 29/28/23 35/25/20
f 35/29/20 29/30/23 22/31/24 30/32/25
f 27/33/21 35/29/20 30/32/25 21/34/26
f 25/35/27 31/36/28 36/37/29 32/38/30
f 31/36/28 26/39/31 33/40/32 36/37/29
f 36/41/29 33/42/32 24/43/33 34/44/34
f 32/45/30 36/41/29 34/44/34 23/46/35
f 39/47/36 45/48/37 40/49/38
f 40/49/38 45/48/37 38/50/39
f 43/51/40 46/52/41 44/53/42
f 44/53/42 46/52/41 42/54/43
f 38/50/39 48/55/44 50/56/45 40/49/38
f 40/49/38 50/56/45 49/57/46 39/47/36
f 42/54/43 49/58/46 50/59/45 44/53/42
f 44/53/42 50/59/45 48/60/44 43/51/40
f 37/61/47 25/35/27 32/38/30 47/62/48
f 21/34/26 30/32/25 45/48/37 37/61/47
f 37/61/47 45/48/37 31/36/28 25/35/27
f 21/34/26 37/61/47 47/62/48 27/33/21
f 38/50/39 22/31/24 29/30/23 48/55/44
f 45/48/37 39/47/36 26/39/31 31/36/28
f 30/32/25 22/31/24 38/50/39 45/48/37
f 26/39/31 39/47/36 49/57/46 33/40/32
f 27/26/21 47/63/48 41/64/49 19/23/18
f 23/46/35 34/44/34 46/52/41 41/64/49
f 41/64/49 46/52/41 28/24/19 19/23/18
f 47/63/48 32/45/30 23/46/35 41/64/49
f 33/42/32 49/58/46 42/54/43 24/43/33
f 46/52/41 43/51/40 20/27/22 28/24/19
f 34/44/34 24/43/33 42/54/43 46/52/41
f 48/60/44 29/28/23 20/27/22 43/51/40
f 51/65/50 61/66/51 76/67/52 60/68/53
f 61/66/51 52/69/54 62/70/55 76/67/52
f 76/67/52 62/70/55 54/71/56 63/72/57
f 60/68/53 76/67/52 63/72/57 53/73/58
f 53/73/58 63/72/57 77/74/59 64/75/60
f 63/72/57 54/71/56 65/76/61 77/74/59
f 77/77/59 65/78/61 58/79/62 66/80/63
f 64/81/60 77/77/59 66/80/63 57/82/64
f 57/82/64 66/80/63 78/83/65 67/84/66
f 66/80/63 58/79/62 68/85/67 78/83/65
f 78/83/65 68/85/67 56/86/68 69/87/69
f 67/84/66 78/83/65 69/87/69 55/88/70
f 55/88/70 69/87/69 79/89/71 70/90/72
f 69/87/69 56/86/68 71/91/73 79/89/71
f 79/92/71 71/93/73 52/69/54 61/66/51
f 70/94/72 79/92/71 61/66/51 51/65/50
f 55/88/70 70/90/72 80/95/74 73/96/75
f 51/65/50 72/97/76 80/95/74 70/94/72
f 59/98/77 73/96/75 80/95/74 72/97/76
f 58/79/62 65/78/61 81/99/78 68/85/67
f 65/76/61 54/71/56 62/70/55 81/100/78
f 81/100/78 62/70/55 52/69/54 71/93/73
f 68/85/67 81/99/78 71/91/73 56/86/68
f 53/73/58 64/75/60 82/101/79 75/102/80
f 57/82/64 74/103/81 82/101/79 64/81/60
f 59/98/77 75/102/80 82/101/79 74/103/81
f 51/65/50 60/68/53 83/104/82 72/97/76
f 53/73/58 75/102/80 83/104/82 60/68/53
f 59/98/77 72/97/76 83/104/82 75/102/80
f 57/82/64 67/84/66 84/105/83 74/103/81
f 55/88/70 73/96/75 84/105/83 67/84/66
f 59/98/77 74/103/81 84/105/83 73/96/75
f 14/1/1 89/4/84 88/3/85 7/2/2
f 6/5/5 87/6/86 89/4/84 14/1/1
f 87/6/86 90/8/87 93/7/88 89/4/84
f 89/4/84 93/7/88 91/9/89 88/3/85
f 93/10/88 92/13/90 86/12/91 91/11/89
f 90/14/87 85/15/92 92/13/90 93/10/88
f 85/15/92 12/17/14 16/16/13 92/13/90
f 92/13/90 16/16/13 13/18/15 86/12/91
f 6/5/5 17/19/16 90/8/87 87/6/86
f 17/20/16 12/17/14 85/15/92 90/14/87
f 88/3/85 91/9/89 18/21/17 7/2/2
f 91/11/89 86/12/91 13/18/15 18/22/17
f 94/23/93 102/26/94 110/25/95 103/24/96
f 103/24/96 110/25/95 104/28/97 95/27/98
f 110/29/95 105/32/99 97/31/100 104/30/97
f 102/33/94 96/34/101 105/32/99 110/29/95
f 100/35/102 107/38/103 111/37/104 106/36/105
f 106/36/105 111/37/104 108/40/106 101/39/107
f 111/41/104 109/44/108 99/43/109 108/42/106
f 107/45/103 98/46/110 109/44/108 111/41/104
f 114/47/111 115/49/112 120/48/113
f 115/49/112 113/50/114 120/48/113
f 118/51/115 119/53/116 121/52/117
f 119/53/116 117/54/118 121/52/117
f 113/50/114 115/49/112 125/56/119 123/55/120
f 115/49/112 114/47/111 124/57/121 125/56/119
f 117/54/118 119/53/116 125/59/119 124/58/121
f 119/53/116 118/51/115 123/60/120 125/59/119
f 112/61/122 122/62/123 107/38/103 100/35/102
f 96/34/101 112/61/122 120/48/113 105/32/99
f 112/61/122 100/35/102 106/36/105 120/48/113
f 96/34/101 102/33/94 122/62/123 112/61/122
f 113/50/114 123/55/120 104/30/97 97/31/100
f 120/48/113 106/36/105 101/39/107 114/47/111
f 105/32/99 120/48/113 113/50/114 97/31/100
f 101/39/107 108/40/106 124/57/121 114/47/111
f 102/26/94 94/23/93 116/64/124 122/63/123
f 98/46/110 116/64/124 121/52/117 109/44/108
f 116/64/124 94/23/93 103/24/96 121/52/117
f 122/63/123 116/64/124 98/46/110 107/45/103
f 108/42/106 99/43/109 117/54/118 124/58/121
f 121/52/117 103/24/96 95/27/98 118/51/115
f 109/44/108 121/52/117 117/54/118 99/43/109
f 123/60/120 118/51/115 95/27/98 104/28/97
f 126/65/125 135/68/126 151/67/127 136/66/128
f 136/66/128 151/67/127 137/70/129 127/69/130
f 151/67/127 138/72/131 129/71/132 137/70/129
f 135/68/126 128/73/133 138/72/131 151/67/127
f 128/73/133 139/75/134 152/74/135 138/72/131
f 138/72/131 152/74/135 140/76/136 129/71/132
f 152/77/135 141/80/137 133/79/138 140/78/136
f 139/81/134 132/82/139 141/80/137 152/77/135
f 132/82/139 142/84/140 153/83/141 141/80/137
f 141/80/137 153/83/141 143/85/142 133/79/138
f 153/83/141 144/87/143 131/86/144 143/85/142
f 142/84/140 130/88/145 144/87/143 153/83/141
f 130/88/145 145/90/146 154/89/147 144/87/143
f 144/87/143 154/89/147 146/91/148 131/86/144
f 154/92/147 136/66/128 127/69/130 146/93/148
f 145/94/146 126/65/125 136/66/128 154/92/147
f 130/88/145 148/96/149 155/95/150 145/90/146
f 126/65/125 145/94/146 155/95/150 147/97/151
f 134/98/152 147/97/151 155/95/150 148/96/149
f 133/79/138 143/85/142 156/99/153 140/78/136
f 140/76/136 156/100/153 137/70/129 129/71/132
f 156/100/153 146/93/148 127/69/130 137/70/129
f 143/85/142 131/86/144 146/91/148 156/99/153
f 128/73/133 150/102/154 157/101/155 139/75/134
f 132/82/139 139/81/134 157/101/155 149/103/156
f 134/98/152 149/103/156 157/101/155 150/102/154
f 126/65/125 147/97/151 158/104/157 135/68/126
f 128/73/133 135/68/126 158/104/157 150/102/154
f 134/98/152 150/102/154 158/104/157 147/97/151
f 132/82/139 149/103/156 159/105/158 142/84/140
f 130/88/145 142/84/140 159/105/158 148/96/149
f 134/98/152 148/96/149 159/105/158 149/103/156
